<svg width="16" height="16" viewBox="0 0 16 16" fill="none" xmlns="http://www.w3.org/2000/svg">
<rect width="16" height="16" rx="5" fill="#45454C"/>
<path d="M4.235 9.17C3.135 9.17 2.255 8.29 2.255 7.19C2.255 6.09 3.135 5.21 4.235 5.21C5.335 5.21 6.215 6.09 6.215 7.19C6.215 8.29 5.335 9.17 4.235 9.17ZM2.465 7.19H4.235V5.42C3.25 5.42 2.465 6.205 2.465 7.19ZM6.78777 9.15C6.87444 9.32667 6.97944 9.47333 7.10277 9.59C7.22944 9.71 7.36777 9.79833 7.51777 9.855C7.67111 9.91167 7.82944 9.94 7.99277 9.94C8.15277 9.94 8.30777 9.91167 8.45777 9.855C8.60777 9.79833 8.74611 9.71 8.87277 9.59C8.99944 9.47333 9.10444 9.32667 9.18777 9.15L9.39777 9.26C9.29111 9.47 9.16777 9.64333 9.02777 9.78C8.89111 9.92 8.73611 10.025 8.56277 10.095C8.39277 10.165 8.20277 10.2 7.99277 10.2C7.78611 10.2 7.59611 10.165 7.42277 10.095C7.25277 10.025 7.09777 9.92 6.95777 9.78C6.81777 9.64333 6.69277 9.47 6.58277 9.26L6.78777 9.15ZM11.7496 9.17C10.6496 9.17 9.76965 8.29 9.76965 7.19C9.76965 6.09 10.6496 5.21 11.7496 5.21C12.8496 5.21 13.7296 6.09 13.7296 7.19C13.7296 8.29 12.8496 9.17 11.7496 9.17ZM9.97965 7.19H11.7496V5.42C10.7646 5.42 9.97965 6.205 9.97965 7.19Z" fill="white"/>
<path d="M2.465 7.19H2.365V7.29H2.465V7.19ZM4.235 7.19V7.29H4.335V7.19H4.235ZM4.235 5.42H4.335V5.32H4.235V5.42ZM4.235 9.07C3.19023 9.07 2.355 8.23477 2.355 7.19H2.155C2.155 8.34523 3.07977 9.27 4.235 9.27V9.07ZM2.355 7.19C2.355 6.14523 3.19023 5.31 4.235 5.31V5.11C3.07977 5.11 2.155 6.03477 2.155 7.19H2.355ZM4.235 5.31C5.27977 5.31 6.115 6.14523 6.115 7.19H6.315C6.315 6.03477 5.39023 5.11 4.235 5.11V5.31ZM6.115 7.19C6.115 8.23477 5.27977 9.07 4.235 9.07V9.27C5.39023 9.27 6.315 8.34523 6.315 7.19H6.115ZM2.465 7.29H4.235V7.09H2.465V7.29ZM4.335 7.19V5.42H4.135V7.19H4.335ZM4.235 5.32C3.19477 5.32 2.365 6.14977 2.365 7.19H2.565C2.565 6.26023 3.30523 5.52 4.235 5.52V5.32ZM6.78777 9.15L6.87755 9.10596L6.83188 9.01285L6.74049 9.06188L6.78777 9.15ZM7.10277 9.59L7.17155 9.5174L7.17149 9.51735L7.10277 9.59ZM7.51777 9.855L7.48243 9.94855L7.48311 9.9488L7.51777 9.855ZM8.45777 9.855L8.42243 9.76145L8.45777 9.855ZM8.87277 9.59L8.80502 9.51644L8.804 9.5174L8.87277 9.59ZM9.18777 9.15L9.23417 9.06142L9.14181 9.01304L9.09733 9.10734L9.18777 9.15ZM9.39777 9.26L9.48693 9.30529L9.53165 9.21724L9.44417 9.17142L9.39777 9.26ZM9.02777 9.78L8.9579 9.70842L8.95622 9.71015L9.02777 9.78ZM8.56277 10.095L8.52533 10.0023L8.5247 10.0025L8.56277 10.095ZM7.42277 10.095L7.3847 10.1875L7.38533 10.1877L7.42277 10.095ZM6.95777 9.78L7.02849 9.70928L7.02763 9.70844L6.95777 9.78ZM6.58277 9.26L6.53549 9.17188L6.44825 9.2187L6.49419 9.3064L6.58277 9.26ZM6.69799 9.19404C6.78909 9.37975 6.90079 9.53659 7.03405 9.66265L7.17149 9.51735C7.05809 9.41008 6.95979 9.27359 6.87755 9.10596L6.69799 9.19404ZM7.034 9.6626C7.16945 9.79092 7.31895 9.88679 7.48243 9.94855L7.55311 9.76145C7.4166 9.70988 7.28943 9.62908 7.17155 9.5174L7.034 9.6626ZM7.48311 9.9488C7.64753 10.0096 7.8176 10.04 7.99277 10.04V9.84C7.84128 9.84 7.69468 9.81377 7.55244 9.7612L7.48311 9.9488ZM7.99277 10.04C8.16487 10.04 8.33184 10.0095 8.49311 9.94855L8.42243 9.76145C8.2837 9.81386 8.14067 9.84 7.99277 9.84V10.04ZM8.49311 9.94855C8.6566 9.88679 8.8061 9.79092 8.94155 9.6626L8.804 9.5174C8.68612 9.62908 8.55895 9.70988 8.42243 9.76145L8.49311 9.94855ZM8.94052 9.66355C9.07786 9.53706 9.19012 9.37944 9.27822 9.19266L9.09733 9.10734C9.01876 9.2739 8.92102 9.40961 8.80503 9.51645L8.94052 9.66355ZM9.14137 9.23858L9.35137 9.34858L9.44417 9.17142L9.23417 9.06142L9.14137 9.23858ZM9.30862 9.21471C9.20592 9.41689 9.08868 9.58079 8.95792 9.70844L9.09763 9.85156C9.24687 9.70587 9.37629 9.52311 9.48693 9.30529L9.30862 9.21471ZM8.95622 9.71015C8.82876 9.84072 8.68523 9.9377 8.52533 10.0023L8.60022 10.1877C8.78698 10.1123 8.95346 9.99928 9.09933 9.84985L8.95622 9.71015ZM8.5247 10.0025C8.36837 10.0669 8.19156 10.1 7.99277 10.1V10.3C8.21399 10.3 8.41717 10.2631 8.60085 10.1875L8.5247 10.0025ZM7.99277 10.1C7.79758 10.1 7.62046 10.067 7.46022 10.0023L7.38533 10.1877C7.57176 10.263 7.77463 10.3 7.99277 10.3V10.1ZM7.46085 10.0025C7.30397 9.93794 7.15987 9.84068 7.02848 9.70929L6.88706 9.85071C7.03567 9.99932 7.20158 10.1121 7.3847 10.1875L7.46085 10.0025ZM7.02763 9.70844C6.89655 9.58049 6.77747 9.41618 6.67136 9.2136L6.49419 9.3064C6.60807 9.52381 6.73899 9.70618 6.88792 9.85156L7.02763 9.70844ZM6.63006 9.34812L6.83506 9.23812L6.74049 9.06188L6.53549 9.17188L6.63006 9.34812ZM9.97965 7.19H9.87965V7.29H9.97965V7.19ZM11.7496 7.19V7.29H11.8496V7.19H11.7496ZM11.7496 5.42H11.8496V5.32H11.7496V5.42ZM11.7496 9.07C10.7049 9.07 9.86965 8.23477 9.86965 7.19H9.66965C9.66965 8.34523 10.5944 9.27 11.7496 9.27V9.07ZM9.86965 7.19C9.86965 6.14523 10.7049 5.31 11.7496 5.31V5.11C10.5944 5.11 9.66965 6.03477 9.66965 7.19H9.86965ZM11.7496 5.31C12.7944 5.31 13.6296 6.14523 13.6296 7.19H13.8296C13.8296 6.03477 12.9049 5.11 11.7496 5.11V5.31ZM13.6296 7.19C13.6296 8.23477 12.7944 9.07 11.7496 9.07V9.27C12.9049 9.27 13.8296 8.34523 13.8296 7.19H13.6296ZM9.97965 7.29H11.7496V7.09H9.97965V7.29ZM11.8496 7.19V5.42H11.6496V7.19H11.8496ZM11.7496 5.32C10.7094 5.32 9.87965 6.14977 9.87965 7.19H10.0796C10.0796 6.26023 10.8199 5.52 11.7496 5.52V5.32Z" fill="white"/>
</svg>